<svg width="545" height="545" viewBox="0 0 545 545" fill="none" xmlns="http://www.w3.org/2000/svg">
<path d="M39.0675 243.581L39.0976 243.569L39.1273 243.556C184.89 180.049 282.071 138.189 330.685 117.969C400.12 89.0884 442.005 72.1596 468.875 62.4091C495.78 52.6461 507.423 50.1625 516.467 50.0032C518.377 49.9696 521.555 50.1919 524.959 51.0052C528.376 51.8215 531.869 53.1971 534.546 55.3697C539.021 59.0005 540.307 63.9279 540.951 67.6947C541.598 71.4722 542.405 80.1518 541.768 86.8512C534.253 165.811 501.711 357.59 485.145 446.148C478.172 483.426 464.685 494.688 452.757 495.785C438.829 497.067 426.49 492.489 414.008 485.156C407.761 481.486 401.523 477.153 395.049 472.554C393.97 471.788 392.884 471.014 391.79 470.234C386.346 466.352 380.719 462.341 374.83 458.481C352.842 444.067 335.637 432.375 318.583 420.762L316.33 419.228C300.031 408.128 283.682 396.994 263.251 383.53C251.014 375.466 244.092 368.478 240.823 362.217C237.63 356.101 237.849 350.543 240.304 344.946C242.819 339.212 247.683 333.443 253.852 327.165C256.57 324.4 259.502 321.574 262.554 318.631C262.949 318.251 263.345 317.869 263.743 317.485C267.215 314.135 270.816 310.637 274.36 306.956C276.083 305.167 284.541 297.304 296.502 286.184C309.817 273.806 327.473 257.392 345.011 240.829C361.621 225.143 378.093 209.351 390.573 196.816C396.81 190.551 402.069 185.079 405.855 180.83C407.746 178.709 409.293 176.866 410.417 175.367C410.979 174.618 411.454 173.929 411.818 173.315C412.163 172.735 412.49 172.09 412.638 171.457C412.854 170.537 413.008 168.721 412.719 166.767C412.429 164.813 411.648 162.403 409.693 160.666C407.746 158.935 405.398 158.436 403.276 158.419C401.181 158.403 399.114 158.856 397.57 159.207C396.99 159.338 396.219 159.718 395.478 160.11C394.646 160.549 393.567 161.163 392.25 161.943C389.612 163.505 385.951 165.775 381.276 168.745C371.921 174.688 358.452 183.471 340.874 195.09C305.715 218.328 254.086 252.932 185.991 298.899L185.984 298.903L185.977 298.907C166.206 312.484 148.544 318.923 132.93 318.585C124.246 318.398 111.386 315.926 97.3902 312.416C83.4404 308.918 68.5191 304.431 55.7819 300.29C51.9636 299.049 48.2623 297.885 44.7076 296.767C33.5421 293.256 23.8227 290.199 16.4646 286.635C11.6388 284.297 8.05609 281.841 5.80789 279.078C3.62337 276.393 2.64437 273.357 3.11601 269.595C3.57788 265.911 6.41833 261.787 12.4698 257.293C18.469 252.838 27.3044 248.258 39.0675 243.581Z" stroke="url(#paint0_linear_821_7)" stroke-width="4"/>
<defs>
<linearGradient id="paint0_linear_821_7" x1="-50.5" y1="273" x2="544" y2="273" gradientUnits="userSpaceOnUse">
<stop stop-color="#253DF5"/>
<stop offset="1" stop-color="#D800DD"/>
</linearGradient>
</defs>
</svg>
