<svg width="545" height="545" viewBox="0 0 545 545" fill="none" xmlns="http://www.w3.org/2000/svg">
<path fill-rule="evenodd" clip-rule="evenodd" d="M38.3284 241.722C184.089 178.217 281.285 136.35 329.917 116.122C468.773 58.3674 497.625 48.3348 516.431 48.0035C520.568 47.9307 529.816 48.9557 535.806 53.8167C540.865 57.9212 542.257 63.4658 542.923 67.3573C543.589 71.2488 544.418 80.1138 543.759 87.0407C536.234 166.102 503.675 357.965 487.111 446.515C480.102 483.984 466.301 496.548 452.941 497.777C423.905 500.449 401.856 478.588 373.733 460.153C329.727 431.306 304.866 413.349 262.15 385.2C212.784 352.669 244.786 334.789 272.919 305.569C280.282 297.921 408.215 181.556 410.691 171C411.001 169.68 411.288 164.759 408.365 162.16C405.441 159.562 401.126 160.45 398.012 161.157C393.599 162.159 323.298 208.625 187.11 300.556C167.155 314.259 149.081 320.935 132.887 320.585C115.034 320.199 80.6928 310.491 55.1636 302.192C23.8511 292.014 -1.03552 286.632 1.13155 269.346C2.26029 260.343 14.6592 251.135 38.3284 241.722Z" fill="url(#paint0_linear_821_6)"/>
<defs>
<linearGradient id="paint0_linear_821_6" x1="-106" y1="273" x2="522.5" y2="273" gradientUnits="userSpaceOnUse">
<stop stop-color="#293CF4"/>
<stop offset="1" stop-color="#D700DE"/>
</linearGradient>
</defs>
</svg>
